<svg id="Layer_1" data-name="Layer 1" xmlns="http://www.w3.org/2000/svg" viewBox="0 0 53.8 53.8"><defs><style>.cls-1{fill:#15bef0;}</style></defs><title>C3D_Logo</title><path class="cls-1" d="M26.39 0a26.77 26.77 0 0 0-11.67 2.91l3.52 5.36a20.54 20.54 0 0 1 28.1 25.24L34.25 15.1h-7.63l19.85 30.22A26.89 26.89 0 0 0 26.39 0zm11.88 38.78L22.73 15.12h-7.62l15.53 23.66h7.63zm-10.98 8.65a20.54 20.54 0 0 1-20-26.66l11.83 18h7.63l-19.71-30a26.89 26.89 0 0 0 31.67 42.3l-3.53-5.37a20.47 20.47 0 0 1-7.89 1.73z"/></svg>