<svg id="GooglePlus" data-name="Layer 1" xmlns="http://www.w3.org/2000/svg" viewBox="0 0 61.41 60.9"><defs></defs><title>google_plus</title><path class="icon" d="M9.07 31.41c3.53 2.47 9.11 1.91 11.54-1.77 2.61-4 1.41-9.47-.42-13.52-1.73-3.83-5-7.6-9.59-7.23a8.36 8.36 0 0 0-5.59 2.85c-1.43 1.71-1.69 4-1.73 6.12-.1 4.93 1.63 10.55 5.79 13.53 1.39 1.01-1.34-.93 0 .02zM7.3 45.94c2.26-.27 4.52-.18 6.79-.29a12.07 12.07 0 0 1-2.52-4.53 8.65 8.65 0 0 1 .72-4.92A16 16 0 0 1 .01 33.05v15.3a14.8 14.8 0 0 1 7.29-2.42zm54.08-29v-17H0v11.19c4.54-4.58 11.21-5.4 17.32-5.4h16.9l-2.18 1.74-1.64 1.32a6 6 0 0 1-1.08.86 7 7 0 0 1-2.36.06h-3.04a14.86 14.86 0 0 1 5.33 11.77c-.09 4.75-2.61 8.29-6.16 11.22-1.62 1.33-3.49 3-3.4 5.24.07 1.78 1.37 2.87 2.68 3.88 2.25 1.74 4.58 3.43 6.66 5.38a17.54 17.54 0 0 1 4.28 5.77 11.9 11.9 0 0 1 .3 7.87h27.85v-39.3H50.25V32.8h-4.79V21.6H34.31v-4.63h11.15V5.74h4.83v11.19h11.12zm-36.1 37.2c-2.12-1.78-4.46-3.27-6.71-4.88a4.58 4.58 0 0 0-2.42-1.22 13.71 13.71 0 0 0-1.59 0c-5.07.23-11.11 1-14.56 5.2v7.59h28.38c.82-2.5-1.35-5.2-3.11-6.7z"/></svg>