<svg id="Pinterest" xmlns="http://www.w3.org/2000/svg" viewBox="0 0 75.2 75.2"><title>pinterest</title><path class="icon" d="M71.19 0H-.01v75.2h75.2V0h-4zM42.4 51.48c-3.87 0-7.5-2.09-8.75-4.46 0 0-2.08 8.25-2.52 9.84-1.55 5.62-6.11 11.25-6.46 11.72a.48.48 0 0 1-.85-.21c-.1-.72-1.26-7.81.11-13.6l4.6-19.51a13.78 13.78 0 0 1-1.14-5.67c0-5.3 3.07-9.27 6.9-9.27 3.26 0 4.83 2.45 4.83 5.38 0 3.27-2.08 8.17-3.16 12.7a5.54 5.54 0 0 0 5.65 6.9c6.78 0 11.35-8.71 11.35-19 0-7.84-5.28-13.72-14.9-13.72-10.85 0-17.62 8.1-17.62 17.14a10.32 10.32 0 0 0 2.36 7 1.74 1.74 0 0 1 .52 2c-.18.66-.57 2.25-.73 2.87a1.23 1.23 0 0 1-1.79.9c-5-2-7.33-7.52-7.33-13.68 0-10.17 8.58-22.36 25.58-22.36 13.67 0 22.66 9.89 22.66 20.51.01 14.04-7.8 24.52-19.3 24.52z"/></svg>